<svg width="19" height="19" viewBox="0 0 19 19" fill="none" xmlns="http://www.w3.org/2000/svg">
<path fill-rule="evenodd" clip-rule="evenodd" d="M1.5835 9.49998C1.5835 13.8724 5.12779 17.4166 9.50016 17.4166C13.8725 17.4166 17.4168 13.8724 17.4168 9.49998C17.4168 5.1276 13.8725 1.58331 9.50016 1.58331C5.12779 1.58331 1.5835 5.1276 1.5835 9.49998ZM15.8335 9.49998C15.8335 12.9978 12.998 15.8333 9.50016 15.8333C6.00236 15.8333 3.16683 12.9978 3.16683 9.49998C3.16683 6.00218 6.00236 3.16665 9.50016 3.16665C12.998 3.16665 15.8335 6.00218 15.8335 9.49998ZM10.2918 11.875V13.4583H8.7085V11.875H10.2918ZM10.2918 10.2916V5.54165H8.7085V10.2916H10.2918Z" fill="#C4C4C4"/>
</svg>
