<svg width="30" height="22" viewBox="0 0 30 22" fill="none" xmlns="http://www.w3.org/2000/svg">
<path d="M10.62 17.3333C10.4615 18.4457 9.90695 19.4636 9.05824 20.1999C8.20952 20.9363 7.12362 21.3417 6 21.3417C4.87638 21.3417 3.79048 20.9363 2.94176 20.1999C2.09305 19.4636 1.53851 18.4457 1.38 17.3333H0V1.33333C0 0.979711 0.140476 0.640573 0.390524 0.390525C0.640573 0.140476 0.979711 0 1.33333 0H20C20.3536 0 20.6928 0.140476 20.9428 0.390525C21.1929 0.640573 21.3333 0.979711 21.3333 1.33333V4H25.3333L29.3333 9.408V17.3333H26.62C26.4615 18.4457 25.907 19.4636 25.0582 20.1999C24.2095 20.9363 23.1236 21.3417 22 21.3417C20.8764 21.3417 19.7905 20.9363 18.9418 20.1999C18.093 19.4636 17.5385 18.4457 17.38 17.3333H10.62ZM18.6667 2.66667H2.66667V13.4C3.19275 12.8629 3.8408 12.4609 4.55567 12.2282C5.27054 11.9954 6.03106 11.9388 6.7725 12.0632C7.51395 12.1876 8.21436 12.4892 8.81415 12.9425C9.41393 13.3958 9.89531 13.9873 10.2173 14.6667H17.7827C18.0067 14.196 18.3067 13.768 18.6667 13.4V2.66667ZM21.3333 10.6667H26.6667V10.2867L23.9893 6.66667H21.3333V10.6667ZM22 18.6667C22.5306 18.6667 23.0395 18.4559 23.4147 18.0807C23.7899 17.7055 24.0007 17.1966 24.0007 16.666C24.0007 16.1354 23.7899 15.6265 23.4147 15.2513C23.0395 14.8761 22.5306 14.6653 22 14.6653C21.4694 14.6653 20.9605 14.8761 20.5853 15.2513C20.2101 15.6265 19.9993 16.1354 19.9993 16.666C19.9993 17.1966 20.2101 17.7055 20.5853 18.0807C20.9605 18.4559 21.4694 18.6667 22 18.6667ZM8 16.6667C8 16.404 7.94827 16.1439 7.84776 15.9013C7.74725 15.6586 7.59993 15.4382 7.41421 15.2525C7.2285 15.0667 7.00802 14.9194 6.76537 14.8189C6.52272 14.7184 6.26264 14.6667 6 14.6667C5.73736 14.6667 5.47728 14.7184 5.23463 14.8189C4.99198 14.9194 4.7715 15.0667 4.58579 15.2525C4.40007 15.4382 4.25275 15.6586 4.15224 15.9013C4.05173 16.1439 4 16.404 4 16.6667C4 17.1971 4.21071 17.7058 4.58579 18.0809C4.96086 18.456 5.46957 18.6667 6 18.6667C6.53043 18.6667 7.03914 18.456 7.41421 18.0809C7.78929 17.7058 8 17.1971 8 16.6667Z" fill="#001018"/>
</svg>
